# xmcd CD database file
# Copyright (C) 1997 Ti Kan
#
# Track frame offsets:
#  150
#  15850
#  30537
#  42912
#  55862
#  71920
#  81290
#  92272
#  107612
#  118312
#  129737
#  137570
#  151900
#  165300
#
# Disc length: 2411 seconds
#
# Revision: 2
# Processed by: cddbd v1.4PL0 Copyright (c) Steve Scherf et al.
# Submitted via: Gronk 1.4
#
DISCID=aa09690e
DTITLE=Chris Smither - It Ain't Easy
DYEAR=1900
DGENRE=blues
TTITLE0=Footloose
TTITLE1=It Ain't Easy
TTITLE2=John Hurt Medley
TTITLE3=No Money Down
TTITLE4=Green Rocky Road
TTITLE5=Guilty
TTITLE6=Maybelline
TTITLE7=Rosalie
TTITLE8=One Plus One
TTITLE9=Ninety Nine Year Blues
TTITLE10=Glory of Love
TTITLE11=Sittin' on Top of the World
TTITLE12=Once in a Very Blue Moon
TTITLE13=So Long, Harry Truman
EXTD=
EXTT0=
EXTT1=
EXTT2=
EXTT3=
EXTT4=
EXTT5=
EXTT6=
EXTT7=
EXTT8=
EXTT9=
EXTT10=
EXTT11=
EXTT12=
EXTT13=
PLAYORDER=
